<svg height='100px' width='100px'  fill="#627ab8" xmlns="http://www.w3.org/2000/svg" viewBox="0 0 64 64" x="0px" y="0px"><title>certified, quality, check, good</title><g><path d="M57.72,32l3.82-6.83a1.49,1.49,0,0,0-.54-2l-6.73-4-.1-7.83a1.5,1.5,0,0,0-1.48-1.48l-7.83-.1L40.85,3a1.49,1.49,0,0,0-2-.54L32,6.28,25.17,2.46a1.49,1.49,0,0,0-2,.54l-4,6.73-7.83.1a1.5,1.5,0,0,0-1.48,1.48l-.1,7.83L3,23.15a1.49,1.49,0,0,0-.54,2L6.28,32,2.46,38.83a1.49,1.49,0,0,0,.54,2l6.73,4,.1,7.83a1.5,1.5,0,0,0,1.48,1.48l7.83.1,4,6.73a1.49,1.49,0,0,0,2,.54L32,57.72l6.83,3.82a1.5,1.5,0,0,0,2-.54l4-6.73,7.83-.1a1.5,1.5,0,0,0,1.48-1.48l.1-7.83,6.73-4a1.49,1.49,0,0,0,.54-2ZM52,42.71A1.52,1.52,0,0,0,51.28,44l-.09,7.21L44,51.28a1.52,1.52,0,0,0-1.27.74L39,58.21l-6.29-3.52a1.5,1.5,0,0,0-1.46,0L25,58.21,21.29,52A1.52,1.52,0,0,0,20,51.28l-7.21-.09L12.72,44A1.52,1.52,0,0,0,12,42.71L5.79,39l3.52-6.29a1.51,1.51,0,0,0,0-1.46L5.79,25,12,21.29A1.52,1.52,0,0,0,12.72,20l.09-7.21L20,12.72A1.52,1.52,0,0,0,21.29,12L25,5.79l6.29,3.52a1.51,1.51,0,0,0,1.46,0L39,5.79,42.71,12a1.52,1.52,0,0,0,1.27.74l7.21.09L51.28,20A1.52,1.52,0,0,0,52,21.29L58.21,25l-3.52,6.29a1.51,1.51,0,0,0,0,1.46L58.21,39Zm-8.7-19.85a1.49,1.49,0,0,1,0,2.12A102,102,0,0,0,30.44,40.84a1.51,1.51,0,0,1-1.13.72h-.15a1.48,1.48,0,0,1-1.1-.48L20.62,33a1.5,1.5,0,0,1,2.21-2L29,37.63A113.24,113.24,0,0,1,41.2,22.89,1.51,1.51,0,0,1,43.32,22.86Z"></path></g></svg>