<svg height='100px' width='100px'  fill="#627ab8" xmlns="http://www.w3.org/2000/svg" xmlns:xlink="http://www.w3.org/1999/xlink" version="1.1" x="0px" y="0px" viewBox="0 0 100 100" enable-background="new 0 0 100 100" xml:space="preserve"><path d="M42.855,70.834c0-3.938-3.204-7.142-7.141-7.142s-7.141,3.204-7.141,7.142c0,3.938,3.203,7.142,7.141,7.142  S42.855,74.771,42.855,70.834z M31.511,70.834c0-2.318,1.885-4.204,4.203-4.204s4.204,1.886,4.204,4.204  c0,2.318-1.886,4.204-4.204,4.204S31.511,73.152,31.511,70.834z"></path><path d="M24.453,86.813v1.057c0,0.812,0.658,1.469,1.469,1.469h19.583c0.812,0,1.469-0.657,1.469-1.469v-1.057  c0-3.787-4.84-6.643-11.259-6.643C29.294,80.171,24.453,83.026,24.453,86.813z M35.714,83.108c4.392,0,7.76,1.663,8.258,3.293  H27.454C27.953,84.771,31.321,83.108,35.714,83.108z"></path><path d="M66.869,70.834c0-3.938-3.203-7.142-7.141-7.142c-3.939,0-7.143,3.204-7.143,7.142c0,3.938,3.204,7.142,7.143,7.142  C63.666,77.976,66.869,74.771,66.869,70.834z M55.522,70.834c0-2.318,1.887-4.204,4.206-4.204c2.318,0,4.203,1.886,4.203,4.204  c0,2.318-1.885,4.204-4.203,4.204C57.409,75.038,55.522,73.152,55.522,70.834z"></path><path d="M48.466,86.813v1.057c0,0.812,0.657,1.469,1.469,1.469h19.583c0.811,0,1.469-0.657,1.469-1.469v-1.057  c0-3.787-4.84-6.642-11.258-6.642C53.308,80.171,48.466,83.027,48.466,86.813z M59.728,83.109c4.391,0,7.758,1.662,8.256,3.292  H51.467C51.966,84.771,55.335,83.109,59.728,83.109z"></path><path d="M76.597,70.834c0,3.938,3.204,7.142,7.143,7.142s7.143-3.204,7.143-7.142c0-3.938-3.205-7.142-7.143-7.142  S76.597,66.896,76.597,70.834z M87.945,70.834c0,2.318-1.887,4.204-4.206,4.204s-4.205-1.886-4.205-4.204  c0-2.318,1.886-4.204,4.205-4.204S87.945,68.516,87.945,70.834z"></path><path d="M83.74,80.171c-6.419,0-11.26,2.856-11.26,6.643v1.057c0,0.812,0.658,1.469,1.469,1.469h19.583  c0.812,0,1.469-0.657,1.469-1.469v-1.057C95,83.027,90.159,80.171,83.74,80.171z M75.481,86.402c0.499-1.63,3.867-3.293,8.259-3.293  c4.392,0,7.76,1.663,8.259,3.293H75.481z"></path><path d="M49.47,24.146h30.429c0.827,0,1.498-0.671,1.498-1.499c0-0.828-0.671-1.498-1.498-1.498H49.47  c-0.827,0-1.498,0.67-1.498,1.498C47.972,23.475,48.643,24.146,49.47,24.146z"></path><path d="M79.899,38.09H63.807c-0.827,0-1.498,0.67-1.498,1.498c0,0.828,0.67,1.499,1.498,1.499h16.092  c0.827,0,1.498-0.671,1.498-1.499C81.397,38.76,80.726,38.09,79.899,38.09z"></path><path d="M49.47,32.616h30.429c0.827,0,1.498-0.671,1.498-1.498c0-0.828-0.671-1.499-1.498-1.499H49.47  c-0.827,0-1.498,0.671-1.498,1.499C47.972,31.945,48.643,32.616,49.47,32.616z"></path><path d="M9.988,19.955c0,4.099,3.335,7.434,7.434,7.434c4.099,0,7.435-3.334,7.435-7.434c0-4.1-3.335-7.434-7.435-7.434  C13.323,12.521,9.988,15.855,9.988,19.955z M21.919,19.955c0,2.479-2.018,4.496-4.497,4.496c-2.479,0-4.496-2.017-4.496-4.496  c0-2.479,2.017-4.497,4.496-4.497C19.901,15.458,21.919,17.476,21.919,19.955z"></path><path d="M94.592,53.61V12.159c0-0.828-0.669-1.499-1.499-1.499h-61.06c-0.827,0-1.498,0.671-1.498,1.499V25.95h2.998V13.657h58.062  v38.456H73.823h-40.29V38.558h-2.998V53.61c0,0.828,0.67,1.499,1.498,1.499h61.06C93.922,55.109,94.592,54.438,94.592,53.61z"></path><path d="M7.747,50.345h2.174v14.644c0,1.515,1.233,2.747,2.747,2.747h9.507c1.515,0,2.747-1.232,2.747-2.747V36.47H36.84  c1.515,0,2.747-1.232,2.747-2.747v-1.938c0-1.515-1.232-2.748-2.747-2.748H11.993C8.137,29.037,5,32.175,5,36.031v11.567  C5,49.113,6.232,50.345,7.747,50.345z M7.938,36.031c0-2.236,1.819-4.056,4.055-4.056H36.65v1.558H23.454  c-0.812,0-1.469,0.658-1.469,1.469v29.797h-3.094V50.096c0-0.812-0.657-1.469-1.469-1.469s-1.469,0.657-1.469,1.469v14.702h-3.095  V36.56c0-0.811-0.657-1.469-1.469-1.469c-0.811,0-1.469,0.658-1.469,1.469v10.847H7.938V36.031z"></path></svg>