<svg height='100px' width='100px'  fill="#627ab8" xmlns="http://www.w3.org/2000/svg" xmlns:xlink="http://www.w3.org/1999/xlink" version="1.1" x="0px" y="0px" viewBox="0 0 100 100" enable-background="new 0 0 100 100" xml:space="preserve"><circle cx="30" cy="70" r="2.5"></circle><path d="M67.5,40c-4.5,0-8.7,1.1-12.5,3V12.5C55,8.4,51.6,5,47.5,5h-35C8.4,5,5,8.4,5,12.5v75c0,4.1,3.4,7.5,7.5,7.5h35  c2.7,0,5.1-1.5,6.4-3.6c4,2.3,8.7,3.6,13.6,3.6C82.7,95,95,82.7,95,67.5S82.7,40,67.5,40z M47.5,90h-35c-1.4,0-2.5-1.1-2.5-2.5v-75  c0-1.4,1.1-2.5,2.5-2.5h35c1.4,0,2.5,1.1,2.5,2.5v33.8c-0.9,0.7-1.7,1.5-2.5,2.4V15h-35v35h33.8C42.4,54.8,40,60.9,40,67.5  c0,8.4,3.8,16,9.8,21C49.4,89.4,48.5,90,47.5,90z M17.5,35v-5h25v5H17.5z M42.5,40v5h-25v-5H42.5z M17.5,25v-5h25v5H17.5z M67.5,90  C55.1,90,45,79.9,45,67.5S55.1,45,67.5,45S90,55.1,90,67.5S79.9,90,67.5,90z"></path><polygon points="70,50 65,50 65,70 80,70 80,65 70,65 "></polygon></svg>