<svg height='100px' width='100px'  fill="#627ab8" xmlns="http://www.w3.org/2000/svg" xmlns:xlink="http://www.w3.org/1999/xlink" version="1.1" x="0px" y="0px" viewBox="0 0 64 64" enable-background="new 0 0 64 64" xml:space="preserve"><g><g><path d="M60.914032,56.2594948L53.422821,26.0710201c-0.0654297-0.2626953-0.234375-0.4873047-0.46875-0.6240234l-9.6923828-5.625    c-0.0028687-0.0016479-0.0061646-0.0020752-0.0090332-0.0037231c-0.0020752-0.0011597-0.00354-0.0029297-0.0056152-0.0040894    c-0.0751953-0.0421753-0.1544189-0.0733643-0.2354736-0.0945435c-0.0096436-0.0025024-0.0195923-0.0018311-0.0292358-0.0040283    c-0.0750122-0.0172729-0.1508179-0.0271606-0.2271729-0.0267944c-0.0251465,0.0001221-0.0496216,0.0062256-0.074707,0.0082397    c-0.0603027,0.0048828-0.1199341,0.0112305-0.178772,0.0270386c-0.0310059,0.0083008-0.0598755,0.0222778-0.0901489,0.0336304    c-0.038269,0.0143433-0.0779419,0.0236206-0.1146851,0.0427856l-9.064209,4.734314    c1.18573-2.2227783,2.0349121-4.9472656,2.0349121-8.2225952c0-5.5136719-4.48633-10-10.0000019-10    s-9.999999,4.4863281-9.999999,10c0,2.2817383,0.4240723,4.2843018,1.0733023,6.050293l-5.3145132,3.0844727    c-0.234375,0.1367188-0.4033203,0.3613281-0.46875,0.6240234L3.0194993,56.4460182    c-0.0888672,0.3603516,0.0283203,0.7402344,0.3046875,0.9873047c0.1865234,0.1660156,0.4248047,0.2539063,0.6660156,0.2539063    c0.1171875,0,0.2363281-0.0205078,0.3496094-0.0634766l14.697998-5.4835205l12.5529785,5.4639893    c0.0150757,0.0065308,0.0317993,0.0039673,0.0470581,0.0097656c0.1139526,0.043457,0.2318115,0.0732422,0.352356,0.0732422    c0.1205463,0,0.2384052-0.0297852,0.3523579-0.0732422c0.0152588-0.0057983,0.0319824-0.0032349,0.0470581-0.0097656    l12.5529785-5.4639893l14.697998,5.4835205c0.1132813,0.0429688,0.2324219,0.0634766,0.3496094,0.0634766    c0.0039063,0,0.0068359,0,0.0107422,0c0.5615234,0.0185547,1.0087891-0.4453125,1.0087891-1    C61.0097351,56.5339088,60.9755554,56.3893776,60.914032,56.2594948z M25.2675457,8.3122311    c4.4111328,0,8.0000019,3.5888672,8.0000019,8c0,3.871521-1.3374043,6.8832397-2.9468403,9.1206055    c-0.0010986,0.0021362-0.0032349,0.0032349-0.0043335,0.0053711c-0.0001831,0.0003052-0.0001221,0.0007324-0.0001221,0.0007324    c-1.8632813,2.5877075-4.0904541,4.1345215-5.0487061,4.7199707c-1.7871094-1.0917969-8-5.4912109-8-13.8466797    C17.2675457,11.9010983,20.8564129,8.3122311,25.2675457,8.3122311z M9.0819998,40.3215675    c0.215271-0.3146362,0.4602661-0.6665039,0.7431641-1.0542603c0.3062744-0.4190674,0.225769-0.9879761-0.1524658-1.3260498    l0.3397217-1.3690796c0.0521851,0.1650391,0.1315308,0.3223267,0.2697754,0.446106    c0.1914063,0.1708984,0.4296875,0.2548828,0.6669922,0.2548828c0.2744141,0,0.5478516-0.1123047,0.7451172-0.3330078    c0.7246094-0.8095703,1.4296875-1.4873047,2.0986328-2.0136719c0.4335938-0.3408203,0.5078125-0.9697266,0.1660156-1.4042969    c-0.3408203-0.4326172-0.96875-0.5087891-1.4042969-0.1660156c-0.7379761,0.5812988-1.5066528,1.3156738-2.2849731,2.1792603    l2.12677-8.5708599l4.7463369-2.7544556c0.7474976,1.4730225,1.6391602,2.7355347,2.5576172,3.7875977l-0.3109741,4.3850079    c-0.0031128-0.0021973-0.0045166-0.0057983-0.0076294-0.0079956c-1.1113281-0.7773418-2.4042969-0.9999981-3.7597647-0.6523418    c-0.5351563,0.1367188-0.8574219,0.6816387-0.7207031,1.216795c0.1367188,0.5361328,0.6816406,0.8583984,1.2167959,0.7207031    c0.7949219-0.203125,1.4804688-0.0917969,2.1171875,0.3535156c0.1748047,0.1220703,0.3740234,0.1806641,0.5722656,0.1806641    c0.1602783,0,0.3183594-0.039917,0.4614868-0.1141357L18.115202,50.3503151L5.4179368,55.0876198L9.0819998,40.3215675z     M20.9651775,38.435276c0.0494385,0.1125488,0.0974731,0.2260132,0.1480713,0.3378906    c0.1660156,0.3701172,0.5302734,0.5888672,0.9121094,0.5888672c0.1367188,0,0.2763672-0.0283203,0.4101563-0.0888672    c0.5039063-0.2265625,0.7275391-0.8183594,0.5-1.3222656c-0.1279297-0.2851563-0.2519531-0.5742188-0.3759766-0.8623047    c-0.2851563-0.6611328-0.5791016-1.3457031-0.9335938-2.0048828c-0.0928955-0.1726074-0.2371826-0.2906494-0.3962402-0.3803101    l0.3414917-4.8181744c1.6847534,1.4851685,3.0864258,2.2368755,3.2334595,2.3137188    c0.1455078,0.0751953,0.3037109,0.1132813,0.4628906,0.1132813s0.3173828-0.0380859,0.4628906-0.1132813    c0.2039795-0.1066284,2.8189087-1.5212383,5.2597656-4.3866558v16.0827007    c-0.0186157,0.0067749-0.038208,0.0039673-0.0566406,0.0119629c-0.1552734,0.0664063-0.3164063,0.1191406-0.4882813,0.1572266    c-0.5351563,0.1201172-1.1474609,0.0683594-1.7910156-0.1601563c-0.5214844-0.1796875-1.0917969,0.0888672-1.2763672,0.6103516    c-0.1835938,0.5205078,0.0898438,1.0917969,0.6103516,1.2763672c0.6337891,0.2236328,1.2626953,0.3369141,1.8691406,0.3369141    c0.3515625,0,0.6972656-0.0380859,1.0224609-0.1113281c0.0375366-0.0083008,0.072998-0.0264282,0.1103516-0.0357056v9.1802368    l-10.875-4.7333984L20.9651775,38.435276z M32.9902039,55.160862V43.581089    c0.013855,0.0114136,0.0205078,0.0279541,0.0351563,0.0387573c0.1787109,0.1308594,0.3857422,0.1943359,0.5917969,0.1943359    c0.3076172,0,0.6103516-0.140625,0.8066406-0.4072266c0.6054688-0.8242188,1.125-1.7490234,1.5830078-2.5664063l0.09375-0.1669922    c0.2705078-0.4814453,0.0996094-1.0908203-0.3818359-1.3613281c-0.4833984-0.2705078-1.0917969-0.0996094-1.3623047,0.3818359    l-0.09375,0.1679688c-0.3981323,0.710083-0.8153076,1.4298706-1.2724609,2.0891113V26.9176998l8.8798828-4.6376953    l0.7209473,10.1714458c-0.4274902,0.1486206-0.8535767,0.3042603-1.2678223,0.496521    c-0.5,0.2333984-0.7177734,0.828125-0.4853516,1.3291016c0.1699219,0.3642578,0.53125,0.578125,0.9082031,0.578125    c0.140625,0,0.2841797-0.0292969,0.4208984-0.0927734c0.1870728-0.0870361,0.3816528-0.1480103,0.5719604-0.2245483    l1.1262817,15.8895874L32.9902039,55.160862z M45.8652039,50.3503151l-1.1639404-16.4165039    c0.052124-0.0106201,0.1029663-0.0297241,0.1551514-0.0395508c0.5429688-0.1015625,0.9003906-0.6240234,0.7978516-1.1669922    c-0.0969849-0.5183716-0.5800171-0.8529644-1.0950317-0.79669l-0.6686401-9.4308472l7.6933594,4.4648438l1.6939697,6.8266582    c-0.2218018,0.0646362-0.4259033,0.1948853-0.5611572,0.402832c-0.3017578,0.4628906-0.1708984,1.0830078,0.2919922,1.3837891    c0.2969971,0.1936646,0.5852051,0.4159546,0.8712158,0.6395264l4.6824951,18.8702393L45.8652039,50.3503151z"></path><path d="M51.0780945,32.419651c-1.0595703-0.3652344-2.1572266-0.5927715-3.2607422-0.6757793    c-0.546875-0.0478516-1.03125,0.3701153-1.0722656,0.9218731c-0.0419922,0.5507813,0.3710938,1.03125,0.921875,1.0722656    c0.9326172,0.0703125,1.8613281,0.2626953,2.7607422,0.5722656c0.1074219,0.0371094,0.2167969,0.0546875,0.3251953,0.0546875    c0.4150391,0,0.8027344-0.2597656,0.9453125-0.6748047C51.8778992,33.1686745,51.6005554,32.5993385,51.0780945,32.419651z"></path><path d="M24.380827,40.4020729c-0.3378906-0.4394531-0.9648438-0.5195313-1.4023438-0.1835938    c-0.4384766,0.3369141-0.5195313,0.9648438-0.1835938,1.4023438c0.6855469,0.8916016,1.4658203,1.71875,2.2548828,2.3935547    c0.1884766,0.1601563,0.4189453,0.2392578,0.6494141,0.2392578c0.2822266,0,0.5625-0.1191406,0.7607422-0.3505859    c0.3583984-0.4199219,0.3085938-1.0507813-0.1113281-1.4101563C25.6630535,41.9079323,24.9823895,41.1842995,24.380827,40.4020729    z"></path><path d="M38.5019226,34.6686745c-0.8642578,0.6728516-1.6582031,1.4501953-2.3583984,2.3115234    c-0.3476563,0.4287109-0.2832031,1.0585938,0.1455078,1.4072266c0.1855469,0.1503906,0.4082031,0.2236328,0.6298828,0.2236328    c0.2910156,0,0.5791016-0.1259766,0.7773438-0.3691406c0.6044922-0.7441406,1.2890625-1.4150391,2.0341797-1.9951172    c0.4355469-0.3388672,0.5136719-0.9667969,0.1748047-1.4033203    C39.5663757,34.4098854,38.9394226,34.3278542,38.5019226,34.6686745z"></path><path d="M30.2665691,16.3122311c0-2.7568359-2.2431641-5-5-5s-5,2.2431641-5,5s2.2431641,5,5,5    S30.2665691,19.069067,30.2665691,16.3122311z M22.2665691,16.3122311c0-1.6542969,1.3457031-3,3-3s3,1.3457031,3,3    s-1.3457031,3-3,3S22.2665691,17.9665279,22.2665691,16.3122311z"></path></g></g></svg>