<svg height='100px' width='100px'  fill="#627ab8" xmlns:x="http://ns.adobe.com/Extensibility/1.0/" xmlns:i="http://ns.adobe.com/AdobeIllustrator/10.0/" xmlns:graph="http://ns.adobe.com/Graphs/1.0/" xmlns="http://www.w3.org/2000/svg" xmlns:xlink="http://www.w3.org/1999/xlink" version="1.1" x="0px" y="0px" viewBox="0 0 100 100" style="enable-background:new 0 0 100 100;" xml:space="preserve"><g><g i:extraneous="self"><g><path d="M30.3,30.3c7.4-7.4,18.1-9.8,27.5-7.1l-10,5.4l3.8,7.1l21.6-11.6L61.7,2.5l-7.1,3.8l4.8,8.9c-12-3.2-25.4-0.1-34.8,9.3     c-12,12-13.7,30.4-5.2,44.3l5.9-5.9C19.8,52.4,21.5,39.1,30.3,30.3z"></path><path d="M80.7,31.1l-5.9,5.9c5.5,10.5,3.8,23.8-5,32.6c-7.4,7.4-18.1,9.8-27.5,7.1l10-5.4l-3.8-7.1L26.7,75.9l11.6,21.6l7.1-3.8     l-4.8-8.9c12,3.2,25.4,0.1,34.8-9.3C87.4,63.4,89.2,45,80.7,31.1z"></path></g></g></g></svg>