<svg height='100px' width='100px'  fill="#627ab8" xmlns:x="http://ns.adobe.com/Extensibility/1.0/" xmlns:i="http://ns.adobe.com/AdobeIllustrator/10.0/" xmlns:graph="http://ns.adobe.com/Graphs/1.0/" xmlns="http://www.w3.org/2000/svg" xmlns:xlink="http://www.w3.org/1999/xlink" version="1.1" x="0px" y="0px" viewBox="0 0 100 100" style="enable-background:new 0 0 100 100;" xml:space="preserve"><g><g i:extraneous="self"><path d="M97.5,58.3c0-8.5-6.2-15.6-14.4-16.9V39c0-18.1-14.7-32.8-32.8-32.8C32.2,6.2,17.4,20.9,17.4,39v2.3    C9,42.4,2.5,49.6,2.5,58.3c0,9.5,7.7,17.2,17.2,17.2h4.4c3.6,0,6.4-2.9,6.4-6.4V47.6c0-3.3-2.5-6-5.7-6.4V39    c0-14,11.4-25.4,25.4-25.4c14,0,25.4,11.4,25.4,25.4v2.1c-3.5,0.1-6.2,2.9-6.2,6.4V69c0,2.7,1.7,5.1,4.2,6    c-3.1,5.2-8.5,8.7-14.9,9.2c-0.4-1.8-2-3.2-4-3.2h-9c-2.2,0-4.1,1.8-4.1,4.1v4.6c0,2.2,1.8,4.1,4.1,4.1h9c2,0,3.7-1.4,4-3.4    c9.7-0.5,17.9-6.6,21.6-15C89.8,75.4,97.5,67.7,97.5,58.3z M23.1,68h-3.4c-5.4,0-9.7-4.4-9.7-9.7s4.4-9.7,9.7-9.7h3.4V68z     M80.3,68h-3.4V48.6h3.4c5.4,0,9.7,4.4,9.7,9.7S85.7,68,80.3,68z"></path></g></g></svg>