<svg height='100px' width='100px'  fill="#627ab8" xmlns="http://www.w3.org/2000/svg" xmlns:xlink="http://www.w3.org/1999/xlink" version="1.1" x="0px" y="0px" viewBox="0 0 32 32" style="enable-background:new 0 0 32 32;" xml:space="preserve"><style type="text/css">
	.st0{display:none;}
	.st1{display:inline;}
	.st2{fill:none;stroke:#627ab8;stroke-width:0.1;stroke-miterlimit:10;}
</style><g class="st0"><g class="st1"><rect x="2" y="2" class="st2" width="28" height="28"></rect><line class="st2" x1="2" y1="30" x2="30" y2="2"></line><line class="st2" x1="2" y1="2" x2="30" y2="30"></line><rect x="6" y="6" class="st2" width="20" height="20"></rect><line class="st2" x1="2" y1="16" x2="16" y2="2"></line><line class="st2" x1="16" y1="2" x2="30" y2="16"></line><line class="st2" x1="30" y1="16" x2="16" y2="30"></line><line class="st2" x1="16" y1="30" x2="2" y2="16"></line><circle class="st2" cx="16" cy="16" r="10"></circle></g></g><path d="M25,2H8C6.9,2,6,2.9,6,4v1C5.4,5,5,5.4,5,6s0.4,1,1,1v2c-0.6,0-1,0.4-1,1s0.4,1,1,1v2c-0.6,0-1,0.4-1,1s0.4,1,1,1v2  c-0.6,0-1,0.4-1,1s0.4,1,1,1v2c-0.6,0-1,0.4-1,1s0.4,1,1,1v2c-0.6,0-1,0.4-1,1s0.4,1,1,1v1c0,1.1,0.9,2,2,2h3h1h13c1.1,0,2-0.9,2-2  V4C27,2.9,26.1,2,25,2z M8,29c-0.6,0-1-0.4-1-1v-1h2v-2H7v-2h2v-2H7v-2h2v-2H7v-2h2v-2H7v-2h2V9H7V7h2V5H7V4c0-0.6,0.4-1,1-1h3v26H8  z M26,28c0,0.6-0.4,1-1,1H12V3h13c0.6,0,1,0.4,1,1V28z"></path><g><path d="M23,8v2h-8V8H23 M23,7h-8c-0.6,0-1,0.4-1,1v2c0,0.6,0.4,1,1,1h8c0.6,0,1-0.4,1-1V8C24,7.4,23.6,7,23,7L23,7z"></path></g></svg>