<svg height='100px' width='100px'  fill="#627ab8" xmlns:x="http://ns.adobe.com/Extensibility/1.0/" xmlns:i="http://ns.adobe.com/AdobeIllustrator/10.0/" xmlns:graph="http://ns.adobe.com/Graphs/1.0/" xmlns="http://www.w3.org/2000/svg" xmlns:xlink="http://www.w3.org/1999/xlink" version="1.1" x="0px" y="0px" viewBox="0 0 100 100" style="enable-background:new 0 0 100 100;" xml:space="preserve"><g><g i:extraneous="self"><g><path d="M43.2,72.1l-4.9,1.6c-0.5,0.1-0.9,0.2-1.4,0.2c-1.7,0-3.2-0.9-4-2.4l-2.3-4.6l-2-0.2l-9.7,20.7c-0.7,1.6,0.6,3.3,2.3,3     l7-1.3c0.9-0.2,1.8,0.2,2.3,1.1l3.5,6.3c0.8,1.5,3.1,1.4,3.8-0.1l9.7-20.6c-0.1-0.1-0.2-0.1-0.3-0.2L43.2,72.1z"></path><path d="M71.4,66.7l-2,0.2l-2.3,4.6c-0.8,1.5-2.3,2.4-4,2.4c-0.5,0-0.9-0.1-1.4-0.2l-4.9-1.6l-3.9,3.3c-0.1,0.1-0.2,0.2-0.3,0.2     l9.7,20.6c0.8,1.6,3,1.7,3.8,0.1l3.4-6.3c0.5-0.8,1.4-1.2,2.3-1.1l7,1.3c1.7,0.3,3.1-1.4,2.3-3L71.4,66.7z"></path><path d="M85,38.5c0.4-0.4,0.4-1,0-1.4l-4.2-4.9c-0.3-0.3-0.3-0.7-0.2-1.1l2-6.1c0.2-0.5-0.1-1.1-0.5-1.3l-5.7-2.9     c-0.3-0.2-0.6-0.5-0.6-0.9l-0.5-6.4c0-0.5-0.5-1-1-1L67.8,12c-0.4,0-0.7-0.3-0.9-0.6l-2.9-5.7c-0.2-0.5-0.8-0.7-1.3-0.5l-6.1,2     c-0.4,0.1-0.8,0-1.1-0.2l-4.9-4.2c-0.4-0.4-1-0.4-1.4,0L44.4,7c-0.3,0.3-0.7,0.3-1.1,0.2l-6.1-2c-0.5-0.2-1.1,0.1-1.3,0.5     L33,11.4c-0.2,0.3-0.5,0.6-0.9,0.6l-6.4,0.5c-0.5,0-1,0.5-1,1l-0.5,6.4c0,0.4-0.3,0.7-0.6,0.9l-5.7,2.9c-0.5,0.2-0.7,0.8-0.5,1.3     l2,6.1c0.1,0.4,0,0.8-0.2,1.1L15,37.1c-0.4,0.4-0.4,1,0,1.4l4.2,4.9c0.3,0.3,0.3,0.7,0.2,1.1l-2,6.1c-0.2,0.5,0.1,1.1,0.5,1.3     l5.7,2.9c0.3,0.2,0.6,0.5,0.6,0.9l0.5,6.4c0,0.5,0.5,1,1,1l6.4,0.5c0.4,0,0.7,0.3,0.9,0.6l2.9,5.7c0.2,0.5,0.8,0.7,1.3,0.5l6.1-2     c0.4-0.1,0.8,0,1.1,0.2l4.9,4.2c0.4,0.4,1,0.4,1.4,0l4.9-4.2c0.3-0.3,0.7-0.3,1.1-0.2l6.1,2c0.5,0.2,1.1-0.1,1.3-0.5l2.9-5.7     c0.2-0.3,0.5-0.6,0.9-0.6l6.4-0.5c0.5,0,1-0.5,1-1l0.5-6.4c0-0.4,0.3-0.7,0.6-0.9l5.7-2.9c0.5-0.2,0.7-0.8,0.5-1.3l-2-6.1     c-0.1-0.4,0-0.8,0.2-1.1L85,38.5z M50,61.6c-13.1,0-23.8-10.7-23.8-23.8S36.9,14,50,14s23.8,10.7,23.8,23.8S63.1,61.6,50,61.6z"></path><path d="M50,17.4c-11.2,0-20.4,9.1-20.4,20.4S38.8,58.2,50,58.2S70.4,49,70.4,37.8S61.2,17.4,50,17.4z M61.6,34.5L48.7,47.4     c-0.4,0.4-1.1,0.4-1.5,0l-8.8-8.8c-0.4-0.4-0.4-1.1,0-1.5l3.7-3.7c0.4-0.4,1.1-0.4,1.5,0l4.4,4.4l8.5-8.5c0.4-0.4,1.1-0.4,1.5,0     l3.7,3.7C62.1,33.4,62.1,34.1,61.6,34.5z"></path></g></g></g></svg>