<svg height='100px' width='100px'  fill="#627ab8" xmlns="http://www.w3.org/2000/svg" xmlns:xlink="http://www.w3.org/1999/xlink" version="1.1" x="0px" y="0px" viewBox="0 0 64 64" style="enable-background:new 0 0 64 64;" xml:space="preserve"><path d="M17.707,48.293c-0.286-0.286-0.715-0.371-1.09-0.217C16.243,48.231,16,48.596,16,49v1.899c-2.279-0.464-4-2.485-4-4.899v-2  c0-0.552-0.447-1-1-1H3c-0.553,0-1,0.448-1,1c0,7.935,6.193,14.45,14,14.967V61c0,0.404,0.243,0.769,0.617,0.924  C16.741,61.975,16.871,62,17,62c0.26,0,0.516-0.102,0.707-0.293l6-6c0.391-0.391,0.391-1.023,0-1.414L17.707,48.293z"></path><path d="M48,5.033V3c0-0.404-0.243-0.769-0.617-0.924c-0.373-0.155-0.804-0.069-1.09,0.217l-6,6c-0.391,0.391-0.391,1.023,0,1.414  l6,6c0.287,0.287,0.717,0.372,1.09,0.217C47.757,15.769,48,15.404,48,15v-1.899c2.279,0.464,4,2.485,4,4.899v2c0,0.552,0.447,1,1,1  h8c0.553,0,1-0.448,1-1C62,12.065,55.807,5.55,48,5.033z"></path><path d="M20,36V4H4v32h3v-9c0-0.552,0.447-1,1-1h8c0.553,0,1,0.448,1,1v9H20z M15,6h2v2h-2V6z M15,11h2v2h-2V11z M15,16h2v2h-2V16z   M9,23H7v-2h2V23z M9,18H7v-2h2V18z M9,13H7v-2h2V13z M9,8H7V6h2V8z M13,23h-2v-2h2V23z M13,18h-2v-2h2V18z M13,13h-2v-2h2V13z   M13,8h-2V6h2V8z M15,23v-2h2v2H15z"></path><rect x="9" y="28" width="6" height="8"></rect><path d="M36,14H22v22h5h9V14z M26,28h-2v-2h2V28z M26,23h-2v-2h2V23z M26,18h-2v-2h2V18z M30,28h-2v-2h2V28z M30,23h-2v-2h2V23z   M30,18h-2v-2h2V18z M34,28h-2v-2h2V28z M34,23h-2v-2h2V23z M34,18h-2v-2h2V18z"></path><rect x="53" y="52" width="2" height="8"></rect><rect x="49" y="52" width="2" height="8"></rect><path d="M44,60h3v-9c0-0.552,0.447-1,1-1h8c0.553,0,1,0.448,1,1v9h3V28H44V60z M49,47h-2v-2h2V47z M53,47h-2v-2h2V47z M57,47h-2v-2  h2V47z M46,30h12v2H46V30z M46,35h12v2H46V35z M46,40h12v2H46V40z"></path><path d="M28,38v22h14V38h-5H28z M32,52h-2v-2h2V52z M36,52h-2v-2h2V52z M40,52h-2v-2h2V52z M40,47H30v-2h10V47z M40,42H30v-2h10V42z  "></path></svg>